<svg width="512" height="512" viewBox="0 0 512 512" fill="none" xmlns="http://www.w3.org/2000/svg">
  <rect width="512" height="512" fill="white"/>
  <path d="M160 256C160 256 200 200 256 200C312 200 352 256 352 256C352 256 312 312 256 312C200 312 160 256 160 256Z" stroke="black" stroke-width="12" fill="none"/>
  <circle cx="220" cy="240" r="8" fill="black"/>
  <circle cx="292" cy="240" r="8" fill="black"/>
  <path d="M220 280C220 280 230 290 256 290C282 290 292 280 292 280" stroke="black" stroke-width="8" stroke-linecap="round" fill="none"/>
  <path d="M120 160L140 180M392 160L372 180" stroke="black" stroke-width="8" stroke-linecap="round"/>
  <path d="M120 352L140 332M392 352L372 332" stroke="black" stroke-width="8" stroke-linecap="round"/>
  <rect x="80" y="120" width="352" height="272" rx="40" stroke="black" stroke-width="12" fill="none"/>
</svg>
